<svg aria-hidden="true" style="position: absolute; width: 0; height: 0; overflow: hidden;" version="1.1" xmlns="http://www.w3.org/2000/svg" xmlns:xlink="http://www.w3.org/1999/xlink">
    <defs>
        <symbol id="icon-mail-02" viewBox="0 0 32 32">
            <path stroke-linejoin="round" stroke-linecap="round" stroke-miterlimit="4" stroke-width="2.2857" d="M28.666 24l-8.857-8M12.19 16l-8.857 8M2.667 9.333l10.887 7.621c0.882 0.617 1.322 0.926 1.802 1.045 0.423 0.106 0.866 0.106 1.29 0 0.479-0.12 0.92-0.428 1.802-1.045l10.887-7.621M9.067 26.667h13.867c2.24 0 3.36 0 4.216-0.436 0.753-0.384 1.365-0.995 1.748-1.748 0.436-0.856 0.436-1.976 0.436-4.216v-8.533c0-2.24 0-3.36-0.436-4.216-0.383-0.753-0.995-1.365-1.748-1.748-0.856-0.436-1.976-0.436-4.216-0.436h-13.867c-2.24 0-3.36 0-4.216 0.436-0.753 0.383-1.365 0.995-1.748 1.748-0.436 0.856-0.436 1.976-0.436 4.216v8.533c0 2.24 0 3.36 0.436 4.216 0.384 0.753 0.995 1.365 1.748 1.748 0.856 0.436 1.976 0.436 4.216 0.436z"></path>
        </symbol>
        <symbol id="icon-lock-02" viewBox="0 0 32 32">
            <path stroke-linejoin="round" stroke-linecap="round" stroke-miterlimit="4" stroke-width="2.2857" d="M22.667 14.667v-4c0-3.682-2.985-6.667-6.667-6.667s-6.667 2.985-6.667 6.667v4M10.4 28h11.2c2.24 0 3.36 0 4.216-0.436 0.753-0.383 1.365-0.995 1.748-1.748 0.436-0.856 0.436-1.976 0.436-4.216v-0.533c0-2.24 0-3.36-0.436-4.216-0.383-0.753-0.995-1.365-1.748-1.748-0.856-0.436-1.976-0.436-4.216-0.436h-11.2c-2.24 0-3.36 0-4.216 0.436-0.753 0.384-1.365 0.995-1.748 1.748-0.436 0.856-0.436 1.976-0.436 4.216v0.533c0 2.24 0 3.36 0.436 4.216 0.383 0.753 0.995 1.365 1.748 1.748 0.856 0.436 1.976 0.436 4.216 0.436z"></path>
        </symbol>
        <symbol id="icon-x-close" viewBox="0 0 32 32">
            <path stroke-linejoin="round" stroke-linecap="round" stroke-miterlimit="4" stroke-width="3.4286" d="M24 8l-16 16M8 8l16 16"></path>
        </symbol>
        <symbol id="burger-menu" viewBox="0 0 32 32">
            <path stroke-linejoin="round" stroke-linecap="round" stroke-miterlimit="4" stroke-width="2.2857" d="M22.667 13.333h-18.667"></path>
            <path stroke-linejoin="round" stroke-linecap="round" stroke-miterlimit="4" stroke-width="2.2857" d="M28 8h-24"></path>
            <path stroke-linejoin="round" stroke-linecap="round" stroke-miterlimit="4" stroke-width="2.2857" d="M28 18.667h-24"></path>
            <path stroke-linejoin="round" stroke-linecap="round" stroke-miterlimit="4" stroke-width="2.2857" d="M22.667 24h-18.667"></path>
        </symbol>
        <symbol id="icon-Switcher-2" viewBox="0 0 50 32">
            <path d="M2.37 14.222c0-6.546 5.306-11.852 11.852-11.852h23.704c6.546 0 11.852 5.306 11.852 11.852s-5.306 11.852-11.852 11.852h-23.704c-6.546 0-11.852-5.306-11.852-11.852z"></path>
            <path d="M14.222 24.889c5.891 0 10.667-4.776 10.667-10.667s-4.776-10.667-10.667-10.667c-5.891 0-10.667 4.776-10.667 10.667s4.776 10.667 10.667 10.667z"></path>
        </symbol>
        <symbol id="icon-Switcher-3" viewBox="0 0 52 32">
            <path d="M0 14.222c0-6.546 5.306-11.852 11.852-11.852h23.704c6.546 0 11.852 5.306 11.852 11.852s-5.306 11.852-11.852 11.852h-23.704c-6.546 0-11.852-5.306-11.852-11.852z"></path>
            <path d="M35.556 24.889c5.891 0 10.667-4.776 10.667-10.667s-4.776-10.667-10.667-10.667-10.667 4.776-10.667 10.667c0 5.891 4.776 10.667 10.667 10.667z"></path>
        </symbol>
        <symbol id="icon-trash-03" viewBox="0 0 32 32">
            <path stroke-linejoin="round" stroke-linecap="round" stroke-miterlimit="4" stroke-width="2.9091" d="M12 4h8M4 8h24M25.333 8l-0.935 14.026c-0.14 2.104-0.21 3.157-0.665 3.954-0.4 0.702-1.004 1.267-1.731 1.619-0.826 0.4-1.881 0.4-3.99 0.4h-4.025c-2.109 0-3.163 0-3.99-0.4-0.727-0.353-1.331-0.917-1.731-1.619-0.455-0.798-0.525-1.85-0.665-3.954l-0.935-14.026M13.333 14v6.667M18.667 14v6.667"></path>
        </symbol>
        <symbol id="icon-user-fill" viewBox="0 0 32 32">
            <path d="M5.333 29.333c0-2.829 1.124-5.542 3.124-7.543s4.713-3.124 7.542-3.124c2.829 0 5.542 1.124 7.542 3.124s3.124 4.714 3.124 7.543h-21.333zM16 17.333c-4.42 0-8-3.58-8-8s3.58-8 8-8c4.42 0 8 3.58 8 8s-3.58 8-8 8z"></path>
        </symbol>
        <symbol id="icon-logo-light-theme" viewBox="0 0 32 32">
            <path d="M0 0l16.343 16.171 15.657 15.829v-32h-32z"></path>
            <path d="M4.457 4.229l11.943 11.829 11.257 11.486h-23.2v-23.314z"></path>
            <path d="M27.733 27.618l-11.943-11.829-11.257-11.486h23.2v23.314z"></path>
            <path d="M9.257 9.029l13.6 13.6h-13.6v-13.6z"></path>
            <path d="M9.257 9.029l13.6 13.6v-13.6h-13.6z"></path>
        </symbol>
        <symbol id="icon-logo-dark-theme" viewBox="0 0 32 32">
            <path d="M0 0l16.343 16.171 15.657 15.829v-32h-32z"></path>
            <path d="M4.457 4.229l11.943 11.829 11.257 11.486h-23.2v-23.314z"></path>
            <path d="M27.733 27.618l-11.943-11.829-11.257-11.486h23.2v23.314z"></path>
            <path d="M9.257 9.029l13.6 13.6h-13.6v-13.6z"></path>
            <path d="M9.257 9.029l13.6 13.6v-13.6h-13.6z"></path>
        </symbol>
        <symbol id="scroll-up-btn" viewBox="-25 0 105 32">
            <path d="M1.091 25.309l24.436-24.509c0.291-0.291 0.606-0.496 0.945-0.617 0.339-0.122 0.703-0.183 1.091-0.183s0.752 0.061 1.091 0.183c0.339 0.12 0.655 0.326 0.945 0.617l24.509 24.509c0.679 0.679 1.018 1.527 1.018 2.545s-0.364 1.891-1.091 2.618c-0.727 0.727-1.576 1.091-2.545 1.091s-1.818-0.364-2.545-1.091l-21.382-21.382-21.382 21.382c-0.679 0.679-1.515 1.018-2.508 1.018-0.995 0-1.856-0.364-2.583-1.091s-1.091-1.576-1.091-2.545c0-0.97 0.364-1.818 1.091-2.545z"></path>
        </symbol>
        <symbol id="shop-list-icon" viewBox="0 0 32 32">
            <path d="M15.833 5.833h-2.5V5a3.333 3.333 0 0 0-6.666 0v.833h-2.5a.833.833 0 0 0-.834.834v9.166a2.5 2.5 0 0 0 2.5 2.5h8.334a2.5 2.5 0 0 0 2.5-2.5V6.667a.833.833 0 0 0-.834-.834ZM8.333 5a1.667 1.667 0 1 1 3.334 0v.833H8.333V5ZM15 15.833a.833.833 0 0 1-.833.834H5.833A.833.833 0 0 1 5 15.833V7.5h1.667v.833a.833.833 0 1 0 1.666 0V7.5h3.334v.833a.834.834 0 0 0 1.666 0V7.5H15v8.333Z"/>
        </symbol>
        <symbol id="support-ukraine-down-btn" viewBox="0 0 56 32">
            <path fill="#4f2ee8" style="fill: var(--color1, #4f2ee8)" d="M25.397 21.134c0.341 0.344 0.746 0.616 1.193 0.803s0.926 0.282 1.41 0.282c0.484 0 0.963-0.096 1.41-0.282s0.852-0.459 1.193-0.803l16.794-16.83c0.341-0.344 0.746-0.616 1.193-0.803s0.926-0.282 1.41-0.282c0.484 0 0.963 0.096 1.41 0.282s0.852 0.459 1.193 0.803c0.683 0.687 1.066 1.616 1.066 2.585s-0.383 1.898-1.066 2.585l-16.83 16.83c-2.063 2.060-4.858 3.217-7.773 3.217s-5.711-1.157-7.773-3.217l-16.83-16.83c-0.677-0.683-1.059-1.605-1.063-2.567-0.003-0.483 0.090-0.961 0.272-1.408s0.451-0.853 0.791-1.196c0.341-0.344 0.746-0.616 1.193-0.803s0.926-0.282 1.41-0.282 0.963 0.096 1.41 0.282c0.447 0.186 0.852 0.459 1.193 0.803l16.793 16.83z"></path>
        </symbol>
        <symbol id="support-ukraine-icon" viewBox="0 0 20 32">
            <path fill="#fff" style="fill: var(--color2, #fff)" d="M9.005 30.888c-1.738-1.262-2.991-3.156-3.414-5.351h-5.591v-23.117c2.991 1.443 5.153 4.599 5.388 7.876l0.846 6.493-0.407-0.045c-0.893 0-1.676 0.812-1.676 1.608 0 0.752 0.595 1.383 1.378 1.548l1.018 0.226c1.676-3.051 2.631-6.042 2.631-8.973 0-2.645-0.36-5.291-0.423-7.996 0-1.202 0.486-2.3 1.253-3.156 0.783 0.857 1.253 1.954 1.253 3.156 0 2.705-0.423 5.351-0.423 7.996 0 2.931 0.955 5.922 2.631 8.973l1.018-0.226c0.783-0.165 1.378-0.812 1.378-1.548 0-0.812-0.783-1.608-1.676-1.608l-0.423 0.060 0.846-6.493c0.423-3.277 2.396-6.448 5.388-7.876v23.117h-5.576c-0.423 2.179-1.613 4.148-3.414 5.351-0.423 0.286-0.783 0.631-1.018 1.097-0.219-0.466-0.579-0.812-0.987-1.112zM2.647 17.556c0.235-0.857 0.893-1.608 1.738-2.074l-0.658-5.351c-0.235-1.668-0.955-3.156-2.036-4.374v11.784h0.955v0.015zM5.466 23.929c0-0.812 0.125-1.548 0.298-2.3l-0.783-0.18c-1.143-0.346-2.036-1.203-2.334-2.3h-0.955v4.78h3.774zM9.178 23.929c0-0.977-0.783-1.834-1.801-1.954-0.172 0.631-0.298 1.263-0.298 1.954h2.099zM9.178 25.552h-1.864c0.298 1.263 0.955 2.42 1.864 3.397v-3.397zM11.809 20.547c-0.72-1.262-1.378-2.585-1.801-3.968-0.423 1.383-1.081 2.706-1.801 3.968 0.72 0.165 1.316 0.631 1.801 1.157 0.486-0.526 1.081-0.992 1.801-1.157zM12.952 23.929c0-0.691-0.125-1.323-0.297-1.954-1.018 0.12-1.801 0.977-1.801 1.954h2.099zM12.717 25.552h-1.864v3.397c0.908-0.992 1.566-2.134 1.864-3.397zM18.34 23.929v-4.78h-0.955c-0.298 1.097-1.206 1.954-2.334 2.3l-0.783 0.18c0.172 0.752 0.298 1.488 0.298 2.3h3.774zM18.34 17.556v-11.799c-1.081 1.202-1.864 2.706-2.036 4.374l-0.658 5.351c0.846 0.466 1.504 1.203 1.739 2.074h0.955z"></path>
        </symbol>
        <symbol id="icon-cross" viewBox="0 0 32 32">
            <path d="M31.708 25.708c-0-0-0-0-0-0l-9.708-9.708 9.708-9.708c0-0 0-0 0-0 0.105-0.105 0.18-0.227 0.229-0.357 0.133-0.356 0.057-0.771-0.229-1.057l-4.586-4.586c-0.286-0.286-0.702-0.361-1.057-0.229-0.13 0.048-0.252 0.124-0.357 0.228 0 0-0 0-0 0l-9.708 9.708-9.708-9.708c-0-0-0-0-0-0-0.105-0.104-0.227-0.18-0.357-0.228-0.356-0.133-0.771-0.057-1.057 0.229l-4.586 4.586c-0.286 0.286-0.361 0.702-0.229 1.057 0.049 0.13 0.124 0.252 0.229 0.357 0 0 0 0 0 0l9.708 9.708-9.708 9.708c-0 0-0 0-0 0-0.104 0.105-0.18 0.227-0.229 0.357-0.133 0.355-0.057 0.771 0.229 1.057l4.586 4.586c0.286 0.286 0.702 0.361 1.057 0.229 0.13-0.049 0.252-0.124 0.357-0.229 0-0 0-0 0-0l9.708-9.708 9.708 9.708c0 0 0 0 0 0 0.105 0.105 0.227 0.18 0.357 0.229 0.356 0.133 0.771 0.057 1.057-0.229l4.586-4.586c0.286-0.286 0.362-0.702 0.229-1.057-0.049-0.13-0.124-0.252-0.229-0.357z"></path>
        </symbol>
        <symbol id="icon-amazon" viewBox="0 0 99 32">
            <path d="M0 0.8h99.2v30.4h-99.2v-30.4z"></path>
        </symbol>
        <symbol id="icon-book-apple" viewBox="0 0 33 32">
            <path d="M0 0h33v32h-33v-32z"></path>
        </symbol>
        <symbol id="icon-book-shop" viewBox="0 0 34 32">
            <path d="M0 0h33.778v32h-33.778v-32z"></path>
        </symbol>
        <symbol id="icon-delet" viewBox="0 0 32 32">
            <path stroke-linejoin="round" stroke-linecap="round" stroke-miterlimit="4" stroke-width="3.2" d="M11.6 2.8h8.8M2.8 7.2h26.4M26.267 7.2l-1.029 15.428c-0.154 2.315-0.232 3.472-0.731 4.35-0.44 0.772-1.104 1.394-1.904 1.781-0.909 0.44-2.069 0.44-4.389 0.44h-4.427c-2.32 0-3.48 0-4.389-0.44-0.8-0.388-1.464-1.009-1.904-1.781-0.5-0.878-0.577-2.035-0.731-4.35l-1.029-15.428M13.067 13.8v7.333M18.933 13.8v7.333"></path>
        </symbol>
        <symbol id="icon-logo-amazon" viewBox="0 0 106 32">
            <path d="M22.783 7.544v10.274c0 0.347-0.281 0.628-0.628 0.628v0h-3.243c-0.347-0-0.628-0.281-0.628-0.628v-16.711c0-0.347 0.281-0.628 0.628-0.628v0h3.001c0.347 0 0.628 0.281 0.628 0.628v0 2.353s1.073-3.357 4.257-3.357c0 0 3.149-0.381 4.43 3.115 0 0 1.073-3.115 4.326-3.115 0 0 4.838-0.288 4.838 4.718l0.037 2.757v10.274c0 0.347-0.281 0.628-0.628 0.628h-3.243c-0.347-0-0.628-0.281-0.628-0.628v-0l-0.030-11.208c0.092-2.538-1.961-2.353-1.961-2.353-2.584 0.046-2.335 3.288-2.335 3.288v10.274c0 0.347-0.281 0.628-0.628 0.628v0h-3.243c-0.347-0-0.628-0.281-0.628-0.628v-10.955s0.19-2.63-2.118-2.63c0 0-2.284-0.3-2.203 3.276zM106.383 7.513v10.273c-0 0.347-0.281 0.628-0.628 0.628h-0l-3.373 0.065c-0.347-0-0.628-0.281-0.628-0.628v-10.954s0.19-2.63-2.117-2.63c0 0-2.204-0.109-2.204 4.015v9.535c-0 0.347-0.281 0.628-0.628 0.628h-3.243c-0.347-0-0.628-0.281-0.628-0.628v-16.711c0-0.347 0.281-0.628 0.628-0.628h3.001c0.347 0 0.628 0.281 0.628 0.628v0 2.353s1.073-3.357 4.257-3.357c0 0 3.411-0.517 4.559 3.050 0-0 0.376 0.736 0.376 4.36zM82.966 0.034c-4.147 0-7.51 3.495-7.51 9.379 0 5.18 2.596 9.379 7.51 9.379 4.637 0 7.51-4.199 7.51-9.379 0-5.779-3.362-9.379-7.51-9.379zM85.584 9.621c0 2.215-0.277 3.392-0.277 3.392-0.394 2.341-2.094 2.345-2.344 2.332-0.27 0.011-1.985-0.014-2.339-2.332 0 0-0.277-1.177-0.277-3.392v-0.369c0-2.215 0.277-3.392 0.277-3.392 0.355-2.319 2.069-2.343 2.339-2.333 0.251-0.012 1.95-0.009 2.344 2.333 0 0 0.277 1.177 0.277 3.392zM73.574 3.437v-2.398c-0-0.347-0.281-0.628-0.628-0.628h-10.72c-0.347 0-0.628 0.281-0.628 0.628v0 2.379c0 0.347 0.281 0.628 0.628 0.628h5.592l-6.619 9.602s-0.261 0.389-0.252 0.819v2.921s-0.043 1.001 1.093 0.42c0 0 2.017-1.219 5.4-1.219 0 0 3.34-0.042 5.567 1.324 0 0 0.924 0.42 0.924-0.504v-2.542s0.084-0.673-0.798-1.093c0 0-2.563-1.408-5.925-1.177zM15.781 15.457l-1.015-1.545c-0.323-0.577-0.3-1.223-0.3-1.223v-7.129c0.138-6.16-6.691-5.629-6.691-5.629-6.071 0-6.968 4.725-6.968 4.725-0.253 0.95 0.483 0.973 0.483 0.973l2.967 0.301s0.506 0.116 0.69-0.486c0 0 0.391-2.061 2.575-2.061 2.377 0 2.353 2.040 2.353 2.040v1.708c-4.745 0.159-6.945 1.476-6.945 1.476-2.93 1.661-2.746 4.961-2.746 4.961 0 5.376 5.122 5.145 5.122 5.145 3.276 0 5.214-2.399 5.214-2.399 0.577 1.016 1.638 1.984 1.638 1.984 0.531 0.576 1.084 0.092 1.084 0.092l2.4-2.053c0.53-0.393 0.138-0.877 0.138-0.877zM6.905 15.391c-1.541 0-2.114-1.531-1.858-3.036s1.586-2.688 4.828-2.653v0.915c0.115 3.997-1.687 4.774-2.97 4.774zM58.879 15.457l-1.015-1.545c-0.323-0.577-0.3-1.223-0.3-1.223v-7.129c0.138-6.16-6.691-5.629-6.691-5.629-6.071 0-6.968 4.725-6.968 4.725-0.253 0.95 0.483 0.973 0.483 0.973l2.967 0.301s0.506 0.116 0.69-0.486c0 0 0.391-2.061 2.575-2.061 2.377 0 2.352 2.040 2.352 2.040v1.708c-4.745 0.159-6.945 1.476-6.945 1.476-2.93 1.661-2.746 4.961-2.746 4.961 0 5.376 5.122 5.145 5.122 5.145 3.276 0 5.214-2.399 5.214-2.399 0.577 1.016 1.638 1.984 1.638 1.984 0.531 0.576 1.085 0.092 1.085 0.092l2.399-2.053c0.531-0.393 0.139-0.877 0.139-0.877zM50.003 15.391c-1.541 0-2.114-1.531-1.858-3.036s1.586-2.688 4.827-2.653v0.915c0.115 3.997-1.686 4.774-2.969 4.774z"></path>
            <path fill="#000" style="fill: var(--color1, #000)" d="M67.045 28.951s-0.271 0.472 0.062 0.578c0 0 0.377 0.147 0.846-0.289 0 0 3.424-2.991 3.507-8.438 0 0 0.025-0.68-0.248-0.866 0 0-1.073-0.949-4.931-0.66 0 0-3.363 0.227-5.199 1.857 0 0-0.165 0.144-0.165 0.33 0 0-0.040 0.401 0.97 0.227 0 0 3.363-0.475 5.364-0.227 0 0 1.032 0.124 1.321 0.475 0 0 0.475 0.392 0.227 1.691 0 0.001-0.681 3.301-1.754 5.323z"></path>
            <path fill="#000" style="fill: var(--color1, #000)" d="M66.367 23.726s0.502 0.651-0.308 1.212c0 0-8.657 6.924-23.192 6.924 0 0-14.962 0.738-27.456-10.613 0 0-0.438-0.385-0.166-0.742 0 0 0.243-0.329 0.872 0.029 0 0 11.753 7.323 27.188 7.323 0 0 10.728 0.415 21.734-4.291 0 0 0.877-0.454 1.328 0.158z"></path>
        </symbol>
        
    </defs>
</svg>
